HIERARCHY
ROOT Hips
{
	OFFSET -0.179506 -22.333345 2.821913
	CHANNELS 6 Xposition Yposition Zposition Zrotation Yrotation Xrotation 
	JOINT LeftUpLeg
	{
		OFFSET 6.951974 -9.140623 -0.681533
		CHANNELS 3 Zrotation Yrotation Xrotation
		JOINT LeftLeg
		{
			OFFSET 3.427654 -37.519855 -0.449580
			CHANNELS 3 Zrotation Yrotation Xrotation
			JOINT LeftFoot
			{
				OFFSET -1.359570 -39.796059 -4.369333
				CHANNELS 3 Zrotation Yrotation Xrotation
				JOINT LeftToe
				{
					OFFSET 2.635814 -5.579078 11.928840
					CHANNELS 3 Zrotation Yrotation Xrotation
					End Site
					{
						OFFSET 0.000000 0.000000 0.000000
					}
				}
			}
		}
	}
	JOINT RightUpLeg
	{
		OFFSET -6.767048 -9.052170 -0.431982
		CHANNELS 3 Zrotation Yrotation Xrotation
		JOINT RightLeg
		{
			OFFSET -3.829005 -38.256897 -0.885003
			CHANNELS 3 Zrotation Yrotation Xrotation
			JOINT RightFoot
			{
				OFFSET 1.577377 -39.841461 -4.231180
				CHANNELS 3 Zrotation Yrotation Xrotation
				JOINT RightToe
				{
					OFFSET -2.537174 -4.814398 12.334795
					CHANNELS 3 Zrotation Yrotation Xrotation
					End Site
					{
						OFFSET 0.000000 0.000000 0.000000
					}
				}
			}
		}
	}
	JOINT Spine
	{
		OFFSET -0.253288 10.896323 -2.669631
		CHANNELS 3 Zrotation Yrotation Xrotation
		JOINT Spine1
		{
			OFFSET 0.548704 13.518043 0.109247
			CHANNELS 3 Zrotation Yrotation Xrotation
			JOINT Spine2
			{
				OFFSET 0.145701 5.292222 2.542457
				CHANNELS 3 Zrotation Yrotation Xrotation
				JOINT Neck
				{
					OFFSET -0.277840 21.387037 -4.285703
					CHANNELS 3 Zrotation Yrotation Xrotation
					JOINT Head
					{
						OFFSET 0.515184 6.496960 5.134897
						CHANNELS 3 Zrotation Yrotation Xrotation
						End Site
						{
							OFFSET 0.000000 0.000000 0.000000
						}
					}
				}
				JOINT LeftShoulder
				{
					OFFSET 7.884473 12.174932 -3.408961
					CHANNELS 3 Zrotation Yrotation Xrotation
					JOINT LeftArm
					{
						OFFSET 9.097692 3.046888 -0.886815
						CHANNELS 3 Zrotation Yrotation Xrotation
						JOINT LeftForeArm
						{
							OFFSET 25.961220 -1.277207 -2.745643
							CHANNELS 3 Zrotation Yrotation Xrotation
							JOINT LeftHand
							{
								OFFSET 24.923361 0.898606 -0.117091
								CHANNELS 3 Zrotation Yrotation Xrotation
								End Site
								{
									OFFSET 0.000000 0.000000 0.000000
								}
							}
						}
					}
				}
				JOINT RightShoulder
				{
					OFFSET -8.175920 11.883285 -3.861528
					CHANNELS 3 Zrotation Yrotation Xrotation
					JOINT RightArm
					{
						OFFSET -9.601238 3.255117 -0.914307
						CHANNELS 3 Zrotation Yrotation Xrotation
						JOINT RightForeArm
						{
							OFFSET -25.374195 -1.332924 -2.140099
							CHANNELS 3 Zrotation Yrotation Xrotation
							JOINT RightHand
							{
								OFFSET -25.529810 0.777228 -0.555919
								CHANNELS 3 Zrotation Yrotation Xrotation
								End Site
								{
									OFFSET 0.000000 0.000000 0.000000
								}
							}
						}
					}
				}
			}
		}
	}
}
MOTION
Frames: 18
Frame Time: 0.033333
-9.790826 22.166296 95.551109 177.765957 -0.391764 88.796081 -4.630578 -2.595974 6.450065 4.760528 -10.310680 -8.242656 1.296784 7.562825 -0.429061 nan nan nan 2.036093 -2.389983 4.612881 0.396544 -2.418349 -3.431414 5.738443 -8.686011 -1.564588 nan nan nan 0.204106 2.457934 2.388203 1.522150 -3.044526 1.621430 1.435251 -1.615673 -0.377648 -3.454539 -2.967707 -1.486997 4.370397 -2.326265 -7.138188 -22.236779 -2.746534 1.193108 -62.780400 -5.470608 12.464199 4.059060 -18.064431 -4.304149 -11.921419 -15.453697 -10.403605 20.624315 4.200377 -2.000249 60.349821 3.313679 16.075237 -6.732948 23.132940 4.836949 14.437706 8.917395 0.080958 
-9.802763 22.141642 95.563477 177.729708 -0.363208 88.883959 -4.607736 -2.606347 6.324922 4.777150 -10.277074 -8.221626 1.296847 7.532060 -0.446107 nan nan nan 2.072030 -2.343458 4.453781 0.397683 -2.429941 -3.349908 5.690389 -8.680912 -1.565087 nan nan nan 0.231607 2.492206 2.345634 1.551504 -3.027760 1.675140 1.424453 -1.591505 -0.465935 -3.441672 -2.972055 -1.458655 4.377886 -2.339275 -7.251552 -22.303790 -2.840052 1.157320 -62.750236 -5.419947 12.544191 4.141580 -18.008479 -4.454072 -11.954275 -15.342507 -10.290690 20.631788 4.178076 -2.027674 60.324489 3.249760 16.067876 -6.792395 23.189524 4.846226 14.446044 8.896659 0.175350 
-9.812720 22.134439 95.579712 177.735619 -0.353785 88.945957 -4.600882 -2.606580 6.210028 4.765389 -10.228359 -8.148989 1.307687 7.506361 -0.450246 nan nan nan 2.061583 -2.328236 4.346115 0.433266 -2.451826 -3.273021 5.693829 -8.661671 -1.549858 nan nan nan 0.237273 2.523538 2.266218 1.580250 -3.027701 1.769444 1.409469 -1.578130 -0.570208 -3.444116 -2.983487 -1.378738 4.414032 -2.405523 -7.332205 -22.312712 -2.893486 1.145263 -62.736757 -5.425429 12.555525 4.113299 -17.910794 -4.620670 -12.048880 -15.341908 -10.290216 20.639021 4.185974 -2.010993 60.316428 3.195010 16.022046 -6.854604 23.200320 4.777269 14.366903 8.929447 0.234124 
-9.806498 22.149273 95.586540 177.725494 -0.343307 88.971731 -4.579191 -2.602494 6.189021 4.738106 -10.162164 -8.139183 1.319852 7.511008 -0.473983 nan nan nan 2.066319 -2.327330 4.328260 0.446423 -2.448839 -3.283555 5.729073 -8.659767 -1.498820 nan nan nan 0.234305 2.525484 2.188748 1.594809 -3.026292 1.829090 1.396671 -1.552833 -0.609626 -3.419118 -2.977436 -1.355016 4.433593 -2.475195 -7.277606 -22.264914 -2.859749 1.152837 -62.739708 -5.477924 12.517705 4.002356 -17.837989 -4.661801 -12.127692 -15.308905 -10.329929 20.635037 4.206797 -1.968307 60.352118 3.236913 15.987063 -6.898281 23.118497 4.695777 14.341886 8.836753 0.246740 
-9.791454 22.169113 95.579460 177.651263 -0.316007 89.024416 -4.543313 -2.591909 6.156152 4.729805 -10.110441 -8.156495 1.318292 7.502842 -0.452785 nan nan nan 2.130040 -2.308092 4.283358 0.403623 -2.409751 -3.299961 5.700151 -8.656011 -1.454543 nan nan nan 0.217550 2.491552 2.082250 1.641492 -3.005545 1.848981 1.392686 -1.490188 -0.583633 -3.411558 -2.902994 -1.343614 4.390957 -2.507904 -7.284910 -22.143903 -2.671600 1.091536 -62.775668 -5.506379 12.546271 3.757442 -17.934666 -4.349721 -12.230996 -15.172762 -10.180839 20.585996 4.159135 -1.980335 60.408386 3.325306 15.995960 -6.875627 23.061681 4.759837 14.523710 8.517229 0.378919 
-9.781373 22.169621 95.575623 177.622147 -0.307232 89.023961 -4.530931 -2.562324 6.145624 4.720250 -10.090041 -8.149615 1.283857 7.489881 -0.430977 nan nan nan 2.150901 -2.297604 4.270033 0.414999 -2.432704 -3.283208 5.696539 -8.654166 -1.436522 nan nan nan 0.201394 2.453617 2.111233 1.658361 -2.988686 1.776945 1.410535 -1.469810 -0.523781 -3.438250 -2.880445 -1.351602 4.361261 -2.508008 -7.319966 -22.104003 -2.551806 1.064814 -62.776212 -5.510433 12.562923 3.617264 -18.054582 -4.083871 -12.131306 -15.166342 -10.152851 20.548513 4.140254 -1.973907 60.416650 3.353038 16.026847 -6.825429 23.094181 4.828815 14.577146 8.447718 0.356439 
-9.773343 22.163122 95.578316 177.660019 -0.324967 88.984986 -4.559097 -2.562845 6.156141 4.749277 -10.130600 -8.106133 1.307831 7.493792 -0.415038 nan nan nan 2.136043 -2.327466 4.295964 0.429034 -2.485550 -3.252044 5.729516 -8.676536 -1.444717 nan nan nan 0.217389 2.456662 2.197632 1.626899 -3.016861 1.742279 1.406772 -1.496095 -0.523485 -3.498583 -2.920182 -1.382541 4.375962 -2.484006 -7.289667 -22.155495 -2.610611 1.085881 -62.718180 -5.488711 12.554701 3.658459 -18.041954 -4.158468 -12.025913 -15.251984 -10.254910 20.566187 4.207073 -1.935325 60.396306 3.285584 16.035105 -6.815462 23.165837 4.766934 14.503006 8.680291 0.232670 
-9.769228 22.165956 95.580666 177.710699 -0.328714 88.950415 -4.575416 -2.565575 6.164889 4.790731 -10.179804 -8.053033 1.363452 7.508059 -0.384742 nan nan nan 2.116327 -2.354057 4.332360 0.462416 -2.510125 -3.229874 5.775544 -8.671554 -1.456449 nan nan nan 0.229391 2.472800 2.249904 1.595004 -3.052755 1.745898 1.406788 -1.526960 -0.543883 -3.519466 -2.971331 -1.380834 4.430955 -2.447152 -7.286258 -22.219434 -2.758327 1.131544 -62.684655 -5.431667 12.586211 3.820085 -17.991172 -4.313208 -11.950360 -15.348048 -10.313972 20.599560 4.306621 -1.916870 60.384243 3.243386 16.018170 -6.836195 23.155662 4.665635 14.348670 8.929516 0.122947 
-9.763993 22.171556 95.583389 177.736529 -0.317036 88.918462 -4.555911 -2.569441 6.214408 4.791768 -10.205820 -8.075424 1.365728 7.523764 -0.362746 nan nan nan 2.128351 -2.362541 4.396180 0.462467 -2.513925 -3.269555 5.794285 -8.671865 -1.465852 nan nan nan 0.231582 2.484524 2.304451 1.575997 -3.060670 1.722747 1.417311 -1.549542 -0.562976 -3.491589 -3.015099 -1.376804 4.471514 -2.394843 -7.270312 -22.247043 -2.899570 1.208315 -62.662330 -5.374625 12.596835 3.931671 -18.010109 -4.401031 -11.926450 -15.406774 -10.379252 20.615613 4.381594 -1.900398 60.360604 3.190239 16.029327 -6.848279 23.166002 4.703287 14.223430 9.038361 0.092208 
-9.765521 22.169495 95.583923 177.721656 -0.316557 88.918617 -4.554207 -2.567773 6.227109 4.788783 -10.207765 -8.100617 1.357425 7.524103 -0.369248 nan nan nan 2.133350 -2.377528 4.408942 0.452784 -2.485774 -3.299373 5.798096 -8.674355 -1.467926 nan nan nan 0.235719 2.492297 2.309105 1.577776 -3.063129 1.720514 1.422800 -1.544659 -0.579150 -3.492895 -3.031026 -1.368044 4.468102 -2.376329 -7.259504 -22.238655 -2.894428 1.209350 -62.655358 -5.354499 12.603084 3.908424 -18.050632 -4.372845 -11.908943 -15.396344 -10.386939 20.601664 4.393734 -1.884484 60.338076 3.170188 16.049474 -6.807067 23.193311 4.741368 14.216095 9.051498 0.087257 
-9.769080 22.147738 95.585068 177.639803 -0.322469 88.979871 -4.556784 -2.568297 6.132733 4.766316 -10.175653 -8.061504 1.329975 7.511838 -0.396963 nan nan nan 2.152428 -2.478814 4.377804 0.413429 -2.359393 -3.449864 5.773399 -8.709578 -1.421407 nan nan nan 0.227134 2.572379 2.247368 1.594915 -3.063239 1.798688 1.428911 -1.533198 -0.654577 -3.515597 -3.046994 -1.343593 4.467336 -2.377624 -7.282237 -22.201090 -2.861889 1.164837 -62.642873 -5.342697 12.669241 3.804603 -18.102291 -4.236973 -11.960470 -15.358048 -10.253564 20.581729 4.438983 -1.857716 60.257582 3.154098 16.100652 -6.685939 23.225141 4.813876 14.326254 9.067349 0.143070 
-9.755894 22.157837 95.583664 177.654738 -0.328367 88.941317 -4.546538 -2.568880 6.175279 4.746825 -10.114099 -8.056399 1.296662 7.490218 -0.405875 nan nan nan 2.171085 -2.567170 4.448975 0.415440 -2.366174 -3.531018 5.729200 -8.759777 -1.380637 nan nan nan 0.212305 2.610610 2.239168 1.595990 -3.058196 1.851845 1.442205 -1.579801 -0.637711 -3.537878 -3.012165 -1.338473 4.445588 -2.428173 -7.330439 -22.193400 -2.901682 1.192961 -62.612932 -5.375800 12.653004 3.783731 -18.112697 -4.168875 -12.060750 -15.323451 -10.173800 20.590687 4.469344 -1.869742 60.246257 3.157746 16.094776 -6.682785 23.235523 4.794413 14.442602 9.036496 0.122822 
-9.738638 22.208616 95.577309 177.724719 -0.349873 88.852405 -4.549982 -2.582877 6.364218 4.752745 -10.106940 -8.173482 1.289453 7.502658 -0.435529 nan nan nan 2.182375 -2.518842 4.591267 0.396773 -2.474361 -3.551280 5.728267 -8.807447 -1.329474 nan nan nan 0.164091 2.544732 2.279827 1.592047 -3.019707 1.793762 1.463717 -1.614190 -0.551587 -3.522407 -2.957693 -1.336330 4.436593 -2.493531 -7.303255 -22.193268 -2.949757 1.243427 -62.582675 -5.398213 12.616419 3.662414 -18.073664 -4.233036 -12.183458 -15.319247 -10.277067 20.584429 4.494021 -1.907298 60.263880 3.177817 16.131352 -6.662540 23.144294 4.789351 14.586486 8.889873 0.084246 
-9.724444 22.247629 95.569305 177.684041 -0.347966 88.876670 -4.529022 -2.538039 6.417607 4.751979 -10.101269 -8.272055 1.282269 7.488413 -0.430503 nan nan nan 2.199074 -2.405324 4.591513 0.390560 -2.527115 -3.561026 5.774339 -8.832991 -1.306100 nan nan nan 0.129193 2.473049 2.173184 1.611898 -2.968445 1.811870 1.470163 -1.563520 -0.492192 -3.472324 -2.916623 -1.340080 4.409911 -2.582370 -7.317407 -22.160593 -2.968729 1.254242 -62.642689 -5.454718 12.565524 3.539226 -17.967587 -4.381775 -12.415927 -15.349044 -10.309890 20.567168 4.521164 -1.898807 60.328868 3.272579 16.113862 -6.744367 23.008628 4.873394 14.754400 8.594470 0.298291 
-9.720627 22.240749 95.578201 177.643844 -0.342181 88.925522 -4.534044 -2.501087 6.341319 4.770357 -10.115038 -8.242023 1.284866 7.479709 -0.434786 nan nan nan 2.229427 -2.326787 4.531306 0.353648 -2.516754 -3.568250 5.760664 -8.841759 -1.324849 nan nan nan 0.115928 2.472180 2.119999 1.627648 -2.954208 1.842847 1.481796 -1.543639 -0.528791 -3.486584 -2.931329 -1.333251 4.427957 -2.577602 -7.328428 -22.149263 -2.975703 1.285806 -62.732901 -5.512942 12.486796 3.589065 -17.895242 -4.500924 -12.638562 -15.399574 -10.367839 20.538883 4.525594 -1.873009 60.404811 3.281369 16.052384 -6.884252 23.023453 4.871667 14.753024 8.587056 0.374258 
-9.720056 22.216324 95.585823 177.683285 -0.343907 88.911170 -4.550942 -2.535918 6.298243 4.784367 -10.156895 -8.168458 1.280229 7.475312 -0.438288 nan nan nan 2.231203 -2.317958 4.519514 0.355630 -2.539732 -3.520305 5.762043 -8.832850 -1.343501 nan nan nan 0.125497 2.491263 2.211431 1.615578 -2.994219 1.817708 1.492726 -1.565293 -0.577176 -3.542807 -2.959641 -1.312478 4.474876 -2.528349 -7.370389 -22.137510 -3.017572 1.327868 -62.753925 -5.504631 12.472052 3.670770 -17.959947 -4.530843 -12.463988 -15.460348 -10.475991 20.519518 4.523806 -1.863581 60.428334 3.203821 16.005507 -6.922524 23.169202 4.762368 14.494815 8.811124 0.213282 
-9.720295 22.214209 95.586754 177.682543 -0.342044 88.909362 -4.552174 -2.537762 6.298302 4.784727 -10.158639 -8.167379 1.279424 7.476861 -0.438962 nan nan nan 2.229882 -2.318989 4.521080 0.358111 -2.542015 -3.517012 5.763451 -8.829638 -1.343501 nan nan nan 0.127881 2.492321 2.215154 1.616370 -2.997475 1.819157 1.493882 -1.565798 -0.582272 -3.547693 -2.960667 -1.309549 4.475382 -2.525478 -7.374086 -22.135168 -3.020566 1.329716 -62.748547 -5.499598 12.473949 3.678788 -17.968836 -4.529555 -12.442472 -15.458778 -10.472555 20.520459 4.525040 -1.859920 60.425060 3.197437 16.003850 -6.920382 23.176546 4.758255 14.479134 8.821655 0.209525 
-9.718650 22.212414 95.585114 177.683566 -0.342443 88.909622 -4.555578 -2.540691 6.299310 4.789099 -10.166939 -8.166291 1.277332 7.484424 -0.440207 nan nan nan 2.220085 -2.321974 4.516908 0.361962 -2.543236 -3.504606 5.777835 -8.813435 -1.350301 nan nan nan 0.129862 2.499381 2.223876 1.616201 -3.005016 1.822069 1.493704 -1.564444 -0.594983 -3.561240 -2.968006 -1.292329 4.483621 -2.514558 -7.393646 -22.129402 -3.029270 1.335684 -62.739979 -5.476629 12.493179 3.704635 -18.009931 -4.512977 -12.344562 -15.448765 -10.448413 20.521530 4.528569 -1.852379 60.415073 3.179671 15.999942 -6.911488 23.203062 4.746346 14.425253 8.853981 0.194972 
